# xmcd
# 
# Track frame offsets:
#     150
#     11525
#     26005
#     37212
#     50995
#     63242
#     75777
#     87900
#     121545
#     134515
#     148375
#     160102
#     173300
#     184382
# 
# Disc length: 2620
# 
# Revision: 8
# Processed by: cddbd v1.5.2PL0 Copyright (c) Steve Scherf et al.
# Submitted via: fre:ac v1.0.17
# 
DISCID=b60a3a0e
DTITLE=Various Artist - Blues History CD4
DYEAR=1989
DGENRE=Blues
TTITLE0=Sonny Boy Williamson - Your Funeral My Trial
TTITLE1=Buddy guy - My Time After A While
TTITLE2=Big Bill Broonzy and Washboard Sam - Jacqueline
TTITLE3=Muddy Waters - I'm Ready
TTITLE4=John Lee Hooker - In The Mood
TTITLE5=Etta James and Fuqua - If I Can't Have You
TTITLE6=Howlin' Wolf - How Many More Years
TTITLE7=Buddy guy - Stone Crazy
TTITLE8=Muddy Waters - Forty Days and Forty Nights
TTITLE9=John Lee Hooker - Louise
TTITLE10=Sonny Boy Williamson - Don't Start me to Talkin'
TTITLE11=Howlin' Wolf - Moanin' At Midnight
TTITLE12=Lowell Fulson - Blue Shadows
TTITLE13=Little Milton - We're Gonna Make It
EXTD=
EXTT0=
EXTT1=
EXTT2=
EXTT3=
EXTT4=
EXTT5=
EXTT6=
EXTT7=
EXTT8=
EXTT9=
EXTT10=
EXTT11=
EXTT12=
EXTT13=
PLAYORDER=
